<?xml version="1.0" encoding="utf-8"?>
<!-- Generator: Adobe Illustrator 27.1.1, SVG Export Plug-In . SVG Version: 6.00 Build 0)  -->
<svg version="1.1" id="Layer_1" xmlns="http://www.w3.org/2000/svg" xmlns:xlink="http://www.w3.org/1999/xlink" x="0px" y="0px"
	 viewBox="0 0 547.3 520.3" style="enable-background:new 0 0 547.3 520.3;" xml:space="preserve">
<style type="text/css">
	.st0{clip-path:url(#SVGID_00000036221106211865227190000004458016166601076649_);}
</style>
<g>
	<defs>
		<rect id="SVGID_1_" width="547.3" height="520.3"/>
	</defs>
	<clipPath id="SVGID_00000025405466955381868220000017899954863429807502_">
		<use xlink:href="#SVGID_1_"  style="overflow:visible;"/>
	</clipPath>
	<path style="clip-path:url(#SVGID_00000025405466955381868220000017899954863429807502_);" d="M7.4,260.2
		c0,139.3,113.3,252.7,252.5,252.7c110.9,0,205.2-71.8,239.1-171.5c2.8-0.5,5.8-1.2,8.5-2C474,444.3,375.7,520.3,260,520.3
		C116.6,520.3,0,403.6,0,260.2c0-57.5,18.7-110.6,50.3-153.7c1.2,2.6,2.5,5.1,3.7,7.6C24.7,155.3,7.4,205.7,7.4,260.2z M53.5,322.8
		c1.7,5.3,6.9,7.6,12.9,5.8c5.9-1.9,8.2-6.1,6.5-11.6l-1.6-5L52,318L53.5,322.8z M30.6,324.7l-0.6,6.9l-1.8,0.6l-6-19l1.8-0.6
		l4.4,5.3l39.3-12.3l0.6-6.9l1.8-0.6l6.1,19.5c1.8,5.7,1.9,8.1,0.7,11.4c-1.2,3.3-3.9,5.7-7.6,6.9c-6.5,2-12.5-0.8-15.9-7.6
		L38.3,349l-0.8,6.4l-1.8,0.6L32,344.4l17.9-22.9l-0.8-2.6L30.6,324.7z M75.4,400.1l1.3,2.1l-10.3,5.4l-19.8-30.1l1.6-1l5.7,3.9
		l34.5-22.7l-1.3-6.8l1.6-1l19.6,29.9l-9.4,6.2l-1.4-2.1l5-7.5l-8.9-13.5l-17,11.1l7.5,11.4l7.1-1.6l1.3,1.9l-13.8,9.1l-1.3-2
		l4.2-5.8l-7.5-11.4l-17.2,11.3l9.1,13.9L75.4,400.1z M112.9,453.7l-17.5-14.8l1.2-1.4l7.7,3.1l27.3-32.5l-8.7-7.3l-8.4,4.6l-2-1.7
		l7.9-9.4l32,26.9l-7.9,9.5l-2.1-1.7l3.2-9.1l-8.5-7.1l-27.3,32.4l4.4,7.1L112.9,453.7z M171.9,461.5l1.5-12.9
		c0.4-3.3,0.6-4.6,1-7.1l-14.7,14.2L171.9,461.5z M148.7,476.2l-14.9-7l0.8-1.7l6.5-0.1l36.7-33.6l3.8,1.8l-4.5,48.7l3.9,4.9
		l-0.8,1.7l-17.3-8.1l0.8-1.7l6.4,0l1.7-16.5l-14.3-6.7l-11.9,11.6l4,5L148.7,476.2z M81.2,271.2c-2.4,0-4.3-2-4.2-4.3
		c0-2.4,1.9-4.4,4.4-4.4c2.4,0,4.2,2,4.2,4.4C85.5,269.3,83.6,271.3,81.2,271.2z M81.2,257.1c-2.4,0-4.3-2.1-4.2-4.4
		c0-2.4,1.9-4.4,4.4-4.4c2.4,0,4.2,2,4.2,4.4C85.5,255,83.6,257.1,81.2,257.1z M42.3,276.7c14.1-0.2,22.8-6.4,22.6-16.1
		c-0.2-9.6-8.5-15.1-22.5-14.9c-14.2,0.2-23,6.3-22.8,15.9C19.7,271,28.5,276.9,42.3,276.7z M40.5,237.8
		c16.3-0.3,27.6,9.3,27.8,23.5c0.2,13.8-9.4,22.9-24.5,23.2c-16.2,0.3-27.4-9.3-27.6-23.6C16,247.2,25.6,238,40.5,237.8z
		 M32.7,178.6l0.8,6.9l39.7,11.2l4.3-5.5l1.8,0.5L70,224.7l-10.5-3l0.7-2.4l8.6-1.3l4-14.1l-19.5-5.5l-3.3,11.7l5.8,4.3l-0.6,2.3
		l-15.9-4.5l0.6-2.2l7.2-0.7l3.3-11.7l-18.7-5.3l-4.7,6.9l-1.8-0.5l5.8-20.6L32.7,178.6z M98,191.3C91.7,206,87.5,221.7,85.4,238
		l-6.6-0.3C81,220,85.8,203,92.7,187.1C94.5,188.6,96.3,189.9,98,191.3z M260,436.3c74.3,0,138-46.3,163.7-111.6
		c2.1,0.5,4.2,1.3,6.1,2.4C403.1,394.8,337,442.9,260,442.9c-93.2,0-170.2-70.2-181.2-160.6l6.6-0.2
		C96.2,368.9,170.4,436.3,260,436.3z M230.5,480.5l19.7,3.1l-0.3,1.9l-6.7,1.5l-2.2,14l-1,0.2c-6.4,0.7-11.2,0.8-16.2,0
		c-8.2-1.3-13.5-4.2-16.9-9.6c-3.4-5.3-4.5-11.5-3.4-18.7c1.3-8.4,5.2-15.1,11.2-19c5.4-3.7,11.6-4.8,20-3.5c5,0.8,8.3,1.7,13.4,3.8
		l0.8,0.4l-1.7,11.1l-2.8-0.5l-1.9-9.7c-1.7-0.7-3.4-1-5.9-1.4c-7.8-1.2-12.8-0.4-17.1,3c-4.6,3.5-7.4,8.8-8.6,16.2
		c-2.1,13.5,3.7,22.2,16.1,24.2c2.7,0.4,5.5,0.7,7.1,0.7l1.9-12.3l-5.9-3.5L230.5,480.5z M294.6,477.1l-5.7-11.6c-1.4-3-2-4.2-3-6.4
		l-4.7,19.9L294.6,477.1z M283,502.1l-16.3,2.2l-0.2-1.9l5.4-3.5l12.8-48.1l4.2-0.5l22.4,43.4l6,2l0.2,1.9l-19,2.5l-0.3-1.9l5.4-3.5
		l-7.4-14.8l-15.7,2l-3.7,16.3l6.1,2L283,502.1z M341.5,460.2l4.6-2.1c5.1-2.3,6.8-7.7,4.2-13.5c-2.5-5.6-7-7.5-12.3-5.1l-4.8,2.2
		L341.5,460.2z M320.4,446.2l-0.8-1.7l18.7-8.3c5.5-2.5,7.8-2.9,11.3-2c3.4,0.8,6.1,3.2,7.7,6.7c2.7,6.2,0.6,12.5-5.7,16.7
		l22.3,12.8l6.4,0.1l0.8,1.7l-11,4.9l-24.9-15.1l-2.5,1.1l7.9,17.8l6.9-0.2l0.8,1.7l-18.2,8.1l-0.8-1.7l4.8-5L327.3,446L320.4,446.2
		z M371.5,421.3l-1.3-1.4l9.3-8.3l44.7,8.6l-21.3-23.6l-6.5,2.3l-1.3-1.4l12.6-11.3l1.3,1.4l-3,6.2l31.1,34.6l-1.7,1.5l-51.3-10.2
		l24.5,27.3l6.5-2.4l1.3,1.4l-12.6,11.3l-1.2-1.4l3-6.3L378,419L371.5,421.3z M439.3,364.1c-3.3-0.7-4.5-1-6.9-1.6l12.7,15.9
		l6.9-11.6L439.3,364.1z M480.5,360.4l1.6,1l-9.8,16.5l-1.6-1l0.5-6.4l-16.2-3.3l-8,13.6l10.5,13l5.3-3.5l1.6,1l-8.4,14.2l-1.6-1
		l0.5-6.4l-29.9-39.7l2.1-3.6l48,9.1L480.5,360.4z M217.8,140.9c14.5,15.1,13.3,33.2,18,55.3c4.7,22.2,12.2,31.4,27.9,44.9
		c-5.4-11.6-12.4-33.8-16.7-52.1c-6.7-28.9-7.8-39.7-21-50.6c-13.1-11-39.9-26.6-59.9-45.1C187.4,118,202,124.5,217.8,140.9z
		 M248.1,126c22,18.2,21.1,43.7,30.7,70.5c9.6,26.8,19.3,69.9,41.2,76.4c32.9,9.8,37.3-28.1,75.9-20.9c3.4,0.7,21.6,3.4,19.2,16.6
		c7.6,2.3,18.8,7.4,12.3,22c-0.6,1.3-2,1-2.2-0.3c-0.2-2.5-1.7-7.3-6.6-8.5c-2.9-0.7-25-2.4-32.8,17.9
		c-9.4,24.7-13.6,34.7-27.7,50.8c-12.3,14-25.9,20.9-44.2,30.6c-16.3,8.7-30.5,28.3-28.4,47.5c-6.2-9.2-10.3-21.4-4.7-32.4
		c3.4-6.7,12.6-12.8,5.8-23.9c-1.5,12.5-10.3,14.1-22.8,23.6c-4.7,3.6-8.2,9.1-8.6,12.8c-3.1-9.8,2.7-15.3,9-20.8
		c9-8,12.2-26.5,0.5-35.3c5.5,19.5-6.1,25.7-17.3,32.8c-8.7,5.5-20.6,12.3-14.9,29.3c-13.3-15.1-4.6-23.5,3-30c8.2-7.2,15-19,6-31.4
		c0.7,16-4.2,17.5-19.6,25.8c-8.2,4.5-13.2,12.5-13.2,19.7c-3.2-17.6,2.7-22.9,8.1-28.4c5.6-5.5,9.5-15.6-1.8-33.5
		c2.9,13.4-1.3,21.2-12.8,31c-11.8,10.1-16,16.5-11,36.9c-8.7-13.3-9.1-23.4-2.5-36c7.9-15,16.2-16.8,4.2-50.8
		c-12.1-34-1.3-57.6-27.2-83.6c-15.7-15.8-29.8-25.1-49.8-38c-48.2-30.9-53.5-53.9-53.5-53.9c27.7,24.3,43.5,13.1,65.2,31.6
		c-6.7-30.8-55.4-26.3-73.6-74.2c25.1,31.3,53.7,23.1,71.2,37.2c-3.7-27.9-63.5-25.2-66.1-79.5c24.4,42.9,48.9,27.2,67.6,47.6
		C124.4,79,81.8,74.9,75.4,24.6c22.3,37.9,44.6,28,61.1,53.7c-0.1-25-36.7-43.7-35.6-74.9c18.8,22,41.9,40.3,59.6,55
		C178.1,73.3,226.1,107.9,248.1,126z M450.1,151.6c2.7,4.9,8.3,6.1,13.8,3c5.4-3,6.9-7.6,4-12.7l-2.5-4.6l-17.7,9.9L450.1,151.6z
		 M427.3,165.9l-9.7-17.4l1.7-0.9l5.4,4.3l36-20.1l-0.8-6.9l1.6-0.9l10,17.8c2.9,5.2,3.5,7.5,3,11c-0.6,3.5-2.7,6.4-6,8.3
		c-5.9,3.3-12.4,1.7-17.1-4.2l-10.7,23.4l0.5,6.4l-1.7,0.9l-5.9-10.5l12.9-26.1l-1.3-2.4l-17,9.5l0.8,6.9L427.3,165.9z M358.2,66.4
		c-2.3-4-2.9-5.8-3-8.4c-0.2-2.4,0.3-4.3,1.5-6.5c3.8-6.9,11.4-8.9,19-4.8c1.1,0.6,3,1.9,4.8,3.1c1.4,1,2.4,1.9,3.2,2.5l2.4,2.1
		l0.9,0.7l-5.1,9.4l-2.5-1.3l1.2-9.7l-0.5-0.3c-1.7-1.1-2-1.3-3.2-2c-6.6-3.6-10.9-3.2-13.3,1.1c-1.7,3-1.4,4.9,1.7,10.4l4.5,8.2
		c2.7,5,3.1,5.7,3.3,8.2c0.3,2.5-0.3,5.2-1.6,7.7c-4,7.4-12.1,9.1-20.7,4.4c-2.1-1.2-5-3.2-7.4-5.4l-3.2-2.9l-0.6-0.6l5.3-9.8
		l2.4,1.3L346,84c1.5,1.2,2.9,2,4.7,3c6.2,3.3,10.7,2.6,13.2-2c1.8-3.2,1.5-5.4-1.5-10.8L358.2,66.4z M395.7,121.1
		c6.7,6.6,17.1,4.6,26.7-5.3c9.9-10.1,11.7-20.6,4.7-27.4c-6.8-6.7-16.7-4.7-26.4,5.3C390.8,103.9,388.8,114.4,395.7,121.1z
		 M430.1,86.6c9.9,9.6,9.4,22.9-1.1,33.7c-11.3,11.6-26,12.7-36.3,2.7c-9.8-9.6-9.4-22.9,1-33.5C405.2,77.8,420,76.7,430.1,86.6z
		 M260,84c-16.7,0-32.7,2.4-47.9,6.7c-2.1-1.6-4.4-3.4-6.5-5c17.2-5.4,35.5-8.3,54.4-8.3c75.2,0,140,45.8,167.9,111
		c-2.9-1.1-6.1-2.3-8.7-3.4C390.9,125.4,330.2,84,260,84z M315.3,23.9l19.2,5.3l-0.5,1.8l-6.9,0.8l-11,39.7l5.5,4.3l-0.5,1.8
		l-19.2-5.3l0.5-1.8l6.9-0.8l11-39.7l-5.5-4.2L315.3,23.9z M275.1,30.9c0.2-6.2-3-9.9-8.7-10.1l-5.3-0.2L260.4,41l5,0.2
		C271,41.3,274.9,37.2,275.1,30.9z M290.8,67.1l-0.1,1.9l-12-0.4L263,44.1l-2.7-0.1l-0.7,19.4l6.3,2.9l0,1.9L246,67.5l0.1-1.9
		l6.5-2.4l1.4-41.2l-6.3-2.9l0.1-1.9l20.4,0.7c6.1,0.2,8.3,0.9,11,3.2c2.7,2.3,4.1,5.6,4,9.4c-0.2,6.8-4.9,11.5-12.4,12.5l14.4,21.2
		L290.8,67.1z M221.1,44.3l1-7.2l2.3-0.5l3.6,16.1l-2.3,0.5l-3.9-6l-11.8,2.6l4.2,19l8.3,0.8l0.4,1.9l-20.9,4.7l-0.4-1.9l5.7-4
		l-9-40.3l-6.8-1.2l-0.4-1.9l33.4-7.4l2.4,10.7l-2.4,0.5l-5.2-7l-14.3,3.2l4.4,19.8L221.1,44.3z M260,7.4
		c-42.2,0-81.9,10.4-116.9,28.7c-2-1.8-4.1-3.5-6-5.3C173.8,11.2,215.6,0,260,0c62.2,0,119.3,22,164,58.6l-4.9,5.6
		C375.7,28.8,320.3,7.4,260,7.4z M430.6,75.5c-1.8-1.7-1.9-4.4-0.2-6.2c1.6-1.7,4.3-1.8,6.1-0.2c1.7,1.6,1.9,4.4,0.3,6.2
		C435.1,77,432.3,77,430.6,75.5z M441.1,85.1c-1.8-1.7-1.9-4.4-0.2-6.2c1.6-1.7,4.3-1.7,6.1-0.1c1.8,1.7,1.9,4.4,0.3,6.1
		C445.5,86.7,442.8,86.7,441.1,85.1z M452,96.3l5.7-4.7c30.9,36.2,52.1,80.9,59.4,130.2c-2.7-0.7-5.4-1.5-7.9-2.4
		C501.6,172.9,481.3,130.7,452,96.3z M469.5,265.1c22.2-2.2,44,19.7,77.9,16.8c-36.9,14.7-62.7-7.6-80.6,6.5
		c32.3,0.4,33.6,18,68.3,21.4c-32.1,7.6-51.4-9.7-71.4,7.7c27.9-2.5,27.6,12.3,55.3,13.5c0,0-41.7,13.1-60.1,5.9
		c-18.7-7.3-31-25.9-69.1-17.3c0.7-6.1,2-12.1,4-17.9c4-11.5,11.2-14.1,17.3-15.1c4.3-0.7,7.1-0.3,8.2,1.4c1.3,1.9,1.8,5.2,2.2,8.2
		c0.5,3.2,3.9,3.7,5.8,2.1c0.9-0.8,2.2-1.7,4-4.7c1.9-3.3,2.9-6.9,3.1-10.6c0.7-10.1-9-15.8-14-18.2c-1.9-13.4-15.1-17.2-21.8-18.6
		c-23.1-4.7-37.4,2.3-49.5,9.9c-10.5,6.7-16.3,9.6-23.7,6.1c27.5-6.6,61.2-48.3,74.4-54.4c11.4-5.2,23.5-1.3,46.2,6.2
		c0,0-25.4-15-45.7-16.1c-20-1.2-48.3,53.8-81.6,59.8c0-0.1-0.1-0.1-0.2-0.2c39.6-26.1,55.7-84.9,91.4-70.6
		c32.2,12.9,80,34.5,117.6,42.7c-20.4,9.6-41.8-6.4-58.8,11.6c25.7-6.4,41,18.3,77.2,12.6C509.9,271.8,487.8,249,469.5,265.1z"/>
</g>
</svg>
