<?xml version="1.0" encoding="UTF-8"?><svg id="Layer_1" xmlns="http://www.w3.org/2000/svg" viewBox="0 0 348.4 172.7"><defs><style>.cls-1{fill:#fff;fill-rule:evenodd;}</style></defs><path class="cls-1" d="m11.49,102.91h33.22c3.84.01,7.6-.2,11.28-.59v3.55H0c.64-.95.81-1.94.88-2.96v-31.75c-.05-1.09-.31-1.98-.75-2.76h12.08c-.43.7-.67,1.63-.72,2.79v31.72h0Z"/><polygon class="cls-1" points="52.82 66.81 60.71 66.81 46.36 75.11 40.91 75.11 52.82 66.81 52.82 66.81"/><path class="cls-1" d="m135.03,105.87l-14.17.02c-.22-1.07-.69-2.1-1.41-3.07l-6.93-8.12h-37.55l-7.4,8.6c-.63.82-.96,1.68-.99,2.58h-8.46c1.4-.98,2.32-1.86,3.29-2.96l28.9-32.12c-.98-.75-1.56-1.21-2.58-2.02h13.31c.72,1.05,21.09,23.73,30.01,33.59.78.87,2.15,2.42,3.99,3.51h0Zm-41.1-32.29l15.8,17.7h-31.97l16.17-17.7h0Z"/><path class="cls-1" d="m202.64,105.87h-14.49l-42.91-33.42.05,30.32c.11,1.17.36,2.23.88,3.1h-7.63c.64-.95.81-1.94.88-2.96v-31.5c-.05-1.09-.31-1.98-.75-2.76h14.48l43.67,33.89.19-30.77c-.06-1.19-.31-2.22-.68-3.15l7.28.09c-.51.97-.78,2.01-.82,3.13l-.16,34.02h0Z"/><path class="cls-1" d="m348.4,105.87l-14.17.02c-.22-1.07-.69-2.1-1.41-3.07l-6.93-8.12h-37.55l-7.4,8.6c-.63.82-.96,1.68-.99,2.58h-8.46c1.4-.98,2.32-1.86,3.29-2.96l28.9-32.12c-.98-.75-1.56-1.21-2.58-2.02h13.31c.72,1.05,21.09,23.73,30.01,33.59.78.87,2.15,2.42,3.99,3.51h0Zm-41.1-32.29l15.8,17.7h-31.97l16.17-17.7h0Z"/><polygon class="cls-1" points="227.5 102.91 270.44 102.91 269.85 105.87 222.88 105.87 211.39 105.87 256.68 71.76 214.69 71.98 215.7 69.04 273.02 68.83 227.5 102.91 227.5 102.91"/><path class="cls-1" d="m339,67.39c1.44,0,2.68.52,3.72,1.55,1.04,1.03,1.56,2.28,1.56,3.73s-.52,2.7-1.55,3.73c-1.03,1.04-2.28,1.56-3.73,1.56s-2.71-.52-3.74-1.55c-1.04-1.04-1.56-2.28-1.56-3.74s.52-2.7,1.56-3.73c1.04-1.04,2.28-1.55,3.74-1.55h0Zm-.01,9.71c1.21,0,2.25-.43,3.11-1.3.87-.87,1.3-1.91,1.3-3.12s-.43-2.25-1.3-3.11c-.87-.86-1.9-1.29-3.12-1.29s-2.25.43-3.11,1.29c-.86.86-1.29,1.9-1.29,3.11s.43,2.26,1.29,3.12c.86.87,1.9,1.3,3.11,1.3h0Zm2.47-1.49h-1.12c-.7-1.28-1.17-2.01-1.38-2.17-.22-.16-.49-.24-.81-.24h-.55v2.42h-.92v-5.68h1.97c.59,0,1.04.04,1.36.13.32.08.57.26.77.54.2.28.29.56.29.87,0,.39-.14.74-.42,1.06-.28.32-.68.5-1.21.53v.03c.34.08.78.55,1.33,1.42l.69,1.11h0Zm-3.86-3.2h1.12c.51,0,.87-.08,1.07-.23.2-.15.3-.36.3-.63s-.1-.47-.29-.62c-.19-.15-.58-.22-1.15-.22h-1.05v1.71h0Z"/></svg>