<?xml version="1.0" encoding="utf-8"?>
<!-- Generator: Adobe Illustrator 27.1.1, SVG Export Plug-In . SVG Version: 6.00 Build 0)  -->
<svg version="1.1" id="Layer_1" xmlns="http://www.w3.org/2000/svg" xmlns:xlink="http://www.w3.org/1999/xlink" x="0px" y="0px"
	 viewBox="0 0 250 53.4" style="enable-background:new 0 0 250 53.4;" xml:space="preserve">
<style type="text/css">
	.st0{fill:#FFFFFF;}
	.st1{fill:#FFFFFF;stroke:#FFFFFF;stroke-miterlimit:10;}
	.st2{stroke:#FFFFFF;stroke-miterlimit:10;}
</style>
<g>
	<path class="st0" d="M26.7,17.8l0.3,4h-0.7c-0.5-3.1-2.5-4.6-6.1-4.6c-2,0-3.7,0.6-5.2,1.9c-1.8,1.6-2.8,4-2.8,7
		c0,2.8,0.9,5.1,2.6,7c1.7,1.8,3.6,2.8,5.9,2.8c1.4,0,2.6-0.4,3.7-1.3c1-0.9,1.7-2.1,2-3.5l0.7,0.2l-0.7,4.1c-0.6,0.4-1.5,0.7-2.9,1
		c-1.3,0.3-2.5,0.5-3.4,0.5c-3.3,0-5.9-1-7.9-2.9c-2-1.9-2.9-4.5-2.9-7.7c0-2.8,1.1-5.2,3.3-7.2c2.1-1.9,4.6-2.8,7.4-2.8
		C21.6,16.3,23.8,16.8,26.7,17.8z"/>
</g>
<g>
	<path class="st0" d="M42.8,15.9l5.4,14.9c0.3,0.8,0.5,1.5,0.8,2.2c0.4,1,0.6,1.6,0.8,1.9c0.4,0.5,1.1,0.8,2.2,0.8v0.7
		c-0.4,0-0.9,0-1.6,0c-0.7,0-1.3,0-1.6,0c-0.9,0-2.3,0-4.1,0v-0.7h0.5c1,0,1.6-0.3,1.6-0.9c0-0.3-0.1-0.8-0.4-1.6L44.9,29h-6.6
		l-0.6,2c-0.5,1.6-0.8,2.7-0.8,3.4c0,0.6,0.2,1,0.6,1.2c0.2,0.1,0.7,0.2,1.3,0.2h0.7v0.7c-0.4,0-0.9,0-1.7,0s-1.3,0-1.7,0
		c-0.8,0-1.9,0-3.4,0v-0.7c0.9-0.1,1.5-0.3,1.8-0.5c0.3-0.2,0.6-0.7,1-1.5c0.1-0.2,0.5-1.2,1.2-3.2l3.6-10.1c0.4-1.1,0.6-2,0.6-2.5
		c0-0.3,0-0.6-0.1-0.7c0.8-0.4,1.4-0.8,1.6-1.2H42.8z M41.4,19.5l-2.7,8.3h5.8L41.4,19.5L41.4,19.5z"/>
	<path class="st0" d="M66.1,27.1h-2.6v6.6c0,0.9,0.2,1.5,0.7,1.8c0.3,0.2,0.9,0.3,1.8,0.3v0.7c-0.5,0-1.1,0-1.9,0s-1.5,0-1.9,0
		c-0.8,0-2.2,0-4.1,0v-0.7c1.7,0.1,2.6-0.5,2.6-1.9V19.5c0-0.9-0.2-1.5-0.7-1.8c-0.3-0.2-0.9-0.3-1.8-0.3v-0.7c2.1,0,3.5,0,4.3,0
		c0.3,0,0.8,0,1.6,0c0.8,0,1.5,0,2.2,0c2.4,0,4.1,0.6,5.3,1.8c0.8,0.9,1.3,2,1.3,3.3c0,1.1-0.4,2.2-1.2,3.1
		c-0.7,0.8-1.7,1.4-2.8,1.8c1,1.5,2.1,3.1,3.1,4.6c0.9,1.3,1.6,2.3,2.1,2.8c1.1,1.2,2.1,1.8,3.2,1.8v0.7c-0.2,0-0.6,0-1,0
		s-0.8,0-1.1,0c-0.5,0-1.3,0-2.4,0c-1.1-1.2-2.2-2.7-3.4-4.5C68.2,30.3,67.2,28.7,66.1,27.1z M69.9,21.9c0-2.8-1.5-4.3-4.6-4.3
		c-0.5,0-1,0.1-1.7,0.2V26c0.5,0.1,1,0.1,1.5,0.1c1.6,0,2.8-0.5,3.7-1.4C69.5,24,69.9,23,69.9,21.9z"/>
	<path class="st0" d="M99,32.1l-1,4.3c-1.6,0-4,0-7.2,0c-3.3,0-5.8,0-7.5,0v-0.7c1.7,0.1,2.6-0.5,2.6-1.9V19.5
		c0-0.9-0.2-1.5-0.7-1.8c-0.3-0.2-0.9-0.3-1.8-0.3v-0.7c1.8,0,3.1,0,3.9,0c0.8,0,2.1,0,4,0v0.7c-0.9,0-1.5,0.1-1.8,0.3
		c-0.5,0.3-0.7,0.9-0.7,1.8v13.1c0,1.1,0.2,1.9,0.7,2.3c0.6,0.5,1.8,0.7,3.7,0.7c1.6,0,2.8-0.2,3.5-0.7s1.3-1.4,1.7-2.8L99,32.1z"/>
	<path class="st0" d="M110.6,17.6v8h3.7c1,0,1.6-0.3,2-1c0.2-0.3,0.3-0.8,0.4-1.5h0.6c-0.1,0.8-0.1,1.9-0.1,3.2c0,0.3,0,0.8,0.1,1.5
		c0,0.8,0.1,1.3,0,1.6h-0.6c0-1.3-0.2-2.1-0.7-2.4c-0.3-0.2-1.1-0.3-2.3-0.3h-3v4.8c0,1.7,0.1,2.7,0.4,3.1c0.3,0.5,1.2,0.8,2.5,0.8
		h1.8c1.5,0,2.5-0.2,3.2-0.6c0.8-0.5,1.4-1.5,1.9-2.9l0.7,0.1c-0.5,1.7-0.9,3.2-1.2,4.3c-0.9,0-2.4,0-4.2,0s-3.3,0-4.2,0
		c-2.8,0-4.9,0-6.3,0v-0.7c1.2,0,2-0.2,2.2-0.6c0.3-0.4,0.4-1.2,0.4-2.6V19.9c0-1.1-0.2-1.8-0.5-2.1c-0.3-0.3-1.1-0.4-2.2-0.5v-0.7
		c1.3,0,3.2,0,5.7,0c3.6,0,6.3,0,8.1,0v4.2l-0.6,0.1c-0.2-1.3-0.7-2.2-1.3-2.7c-0.7-0.5-1.7-0.7-3.2-0.7H110.6z"/>
</g>
<g>
	<path class="st0" d="M146.6,20.3v16.3H146l-14.8-16.2V31c0,2,0.2,3.3,0.6,3.8c0.4,0.6,1.3,0.8,2.8,0.8v0.7c-0.4,0-1,0-1.9,0
		s-1.5,0-1.9,0c-0.8,0-2.1,0-3.8,0v-0.7c1.1,0,1.8-0.2,2.1-0.5c0.6-0.5,0.9-1.5,0.9-3.1V20.7c0-1.2-0.3-2.1-0.8-2.6
		c-0.5-0.5-1.4-0.7-2.7-0.7v-0.7c1.2,0,2,0,2.6,0c0.3,0,0.7,0,1.2,0c0.5,0,0.9,0,1.1,0c0.5,0.7,1.4,1.8,2.7,3.3
		c1.4,1.5,2.8,3.1,4.3,4.6c1.7,1.8,4,4.3,7,7.6V20.8c0-1.3-0.2-2.2-0.7-2.7c-0.4-0.5-1.4-0.7-2.8-0.7v-0.7c1.7,0,3,0,3.9,0
		c0.4,0,0.9,0,1.7,0s1.3,0,1.6,0v0.7c-1,0-1.7,0.1-2,0.4C146.9,18.2,146.6,19,146.6,20.3z"/>
	<path class="st0" d="M182.4,33.8l0.5,0.4c-1.5,2.1-3.2,3.2-5,3.2c-1.3,0-2.5-0.6-3.6-1.7c-0.4-0.4-1.3-1.5-2.6-3.3
		c-1.5,1.7-2.5,2.7-2.9,3c-1.2,0.9-2.5,1.4-3.9,1.4c-1.6,0-2.9-0.6-4.1-1.7c-1.1-1.1-1.7-2.4-1.7-4c0-1.6,0.4-2.9,1.3-4
		c0.7-0.9,1.8-1.7,3.4-2.6c-1.5-1-2.3-2.2-2.3-3.7c0-1.3,0.4-2.3,1.2-3.1c0.8-0.8,1.9-1.2,3.2-1.2c1.1,0,2,0.3,2.8,0.9
		c0.8,0.6,1.2,1.5,1.2,2.5c0,1.5-1,2.7-3.1,3.9c2.2,1.6,4.2,3.7,6,6.1c0.8-0.9,1.6-2,2.4-3.1c1.1-1.6,1.6-2.7,1.6-3.3
		s-0.6-0.9-1.8-0.9v-0.7c1.2,0.1,2.4,0.1,3.6,0.1c1.3,0,2.6,0,3.9-0.1v0.7c-1.4,0-2.5,0.3-3.3,0.8c-0.6,0.4-1.4,1.2-2.3,2.5
		c-1.5,2.1-2.8,3.7-3.7,4.8c0.8,1.1,1.7,2.1,2.6,3.2c1.1,1.2,2.3,1.8,3.5,1.8C180.4,35.5,181.4,35,182.4,33.8z M161.2,29.6
		c0,1.4,0.5,2.6,1.5,3.6s2.2,1.6,3.5,1.6c1.1,0,2-0.3,2.8-0.8c0.5-0.4,1.2-1.1,2.1-2.1c-1.5-2-3.7-4.3-6.7-6.9
		C162.3,26.3,161.2,27.9,161.2,29.6z M168.1,20c0-0.9-0.2-1.5-0.6-2c-0.4-0.5-1-0.8-1.8-0.8c-0.7,0-1.2,0.2-1.6,0.7
		c-0.4,0.5-0.6,1.1-0.6,1.8c0,0.8,0.3,1.5,0.9,2.1c0.3,0.3,0.9,0.8,1.9,1.5C167.4,22.5,168.1,21.4,168.1,20z"/>
	<path class="st0" d="M210.4,17.8l0.3,4H210c-0.5-3.1-2.5-4.6-6.1-4.6c-2,0-3.7,0.6-5.2,1.9c-1.8,1.6-2.8,4-2.8,7
		c0,2.8,0.9,5.1,2.6,7c1.7,1.8,3.6,2.8,5.9,2.8c1.4,0,2.6-0.4,3.7-1.3c1-0.9,1.7-2.1,2-3.5l0.7,0.2l-0.7,4.1c-0.6,0.4-1.5,0.7-2.9,1
		c-1.3,0.3-2.5,0.5-3.4,0.5c-3.3,0-5.9-1-7.9-2.9c-2-1.9-2.9-4.5-2.9-7.7c0-2.8,1.1-5.2,3.3-7.2c2.1-1.9,4.6-2.8,7.4-2.8
		C205.3,16.3,207.6,16.8,210.4,17.8z"/>
</g>
<g>
	<path class="st0" d="M218.1,26.7c0-2.7,0.9-5.1,2.8-7.2c2-2.2,4.4-3.3,7.4-3.3c2.8,0,5.2,1,7.2,3.1c1.9,2,2.9,4.4,2.9,7.1
		s-0.9,5.1-2.8,7.2c-2,2.2-4.4,3.3-7.4,3.3c-2.8,0-5.2-1-7.2-3.1C219.1,31.8,218.1,29.4,218.1,26.7z M221.3,25.8
		c0,2.5,0.6,4.7,1.8,6.6c1.4,2.3,3.2,3.4,5.5,3.4c2,0,3.7-0.8,4.9-2.4c1.2-1.6,1.8-3.7,1.8-6.3c0-2.5-0.6-4.7-1.8-6.7
		c-1.4-2.3-3.2-3.4-5.5-3.4c-2,0-3.7,0.8-4.9,2.4C221.9,21.2,221.3,23.3,221.3,25.8z"/>
</g>
<line class="st1" x1="0" y1="0.5" x2="250" y2="0.5"/>
<line class="st2" x1="0" y1="52.9" x2="250" y2="52.9"/>
</svg>
