<?xml version="1.0" encoding="UTF-8"?><svg id="Layer_1" xmlns="http://www.w3.org/2000/svg" xmlns:xlink="http://www.w3.org/1999/xlink" viewBox="0 0 779.67 128.16"><defs><style>.cls-1{fill:none;}.cls-2{clip-path:url(#clippath);}.cls-3{fill:#020303;fill-rule:evenodd;}</style><clipPath id="clippath"><rect class="cls-1" width="779.67" height="128.16"/></clipPath></defs><g class="cls-2"><path class="cls-3" d="m425.26,14.81h-21.37v41.06c6.9.17,13.8,0,20.03,0,10.43,0,18.51-.67,23.9-5.05,4.21-3.37,7.07-9.59,7.07-15.65s-3.03-12.28-7.57-15.82c-5.39-4.04-12.62-4.54-22.05-4.54Zm-122.68,13.8l-20.87,43.75h41.4l-20.53-43.75ZM63.44,11.78c-26.59,0-50.82,21.2-50.82,52.17s23.56,51.16,50.82,51.16,51.33-21.54,51.33-51.83S90.2,11.78,63.44,11.78ZM705.28,3.03l28.94,47.12,29.11-47.12h13.97l-36.01,58.56,38.37,62.26h-14.14l-31.3-50.65-31.64,50.65h-14.14l38.54-62.26-35.85-58.56h14.14Zm-41.57,0v11.78h-56.88v37.86h56.88v11.78h-56.88v47.62h56.88v11.78h-69V3.03h69Zm-147.42,0v109.04h46.45v11.78h-58.56V3.03h12.12Zm-96.6,0c12.62,0,22.05.84,27.94,3.03,12.28,4.71,19.86,15.48,19.86,29.11,0,11.44-5.39,21.04-13.97,26.42-8.21,5.15-19.96,5.99-35.55,6.05h-14.1v56.21h-12.12V3.03h27.94Zm-115.61,0l56.38,120.82h-12.96l-19.02-39.71h-52.17l-18.85,39.71h-13.46L301.23,3.03h2.86Zm-127.73,0v109.04h46.45v11.78h-58.56V3.03h12.12ZM62.77,0c36.69,0,64.62,27.43,64.62,63.44s-27.77,63.44-63.61,63.44S0,97.77,0,63.95C0,27.93,27.94,0,62.77,0Z"/></g></svg>