<?xml version="1.0" encoding="UTF-8"?><svg id="Layer_2" xmlns="http://www.w3.org/2000/svg" viewBox="0 0 348.4 172.7"><defs><style>.cls-1{fill:#fff;fill-rule:evenodd;}</style></defs><path class="cls-1" d="m188.59,66.34h-8.68v16.67c2.8.07,5.6,0,8.13,0,4.24,0,7.52-.27,9.7-2.05,1.71-1.37,2.87-3.89,2.87-6.35s-1.23-4.99-3.07-6.42c-2.19-1.64-5.12-1.84-8.95-1.84h0Zm-49.81,5.6l-8.47,17.76h16.81l-8.34-17.76Zm-97.1-6.83c-10.8,0-20.64,8.61-20.64,21.18s9.57,20.77,20.64,20.77,20.84-8.75,20.84-21.05-9.98-20.91-20.84-20.91Zm260.62-3.55l11.75,19.13,11.82-19.13h5.67l-14.62,23.78,15.58,25.28h-5.74l-12.71-20.57-12.85,20.57h-5.74l15.65-25.28-14.56-23.78h5.75Zm-16.88,0v4.78h-23.1v15.37h23.1v4.78h-23.1v19.34h23.1v4.78h-28.02v-49.06h28.02Zm-59.86,0v44.28h18.86v4.78h-23.78v-49.06h4.92,0Zm-39.22,0c5.12,0,8.95.34,11.35,1.23,4.99,1.91,8.06,6.29,8.06,11.82,0,4.65-2.19,8.54-5.67,10.73-3.33,2.09-8.1,2.43-14.44,2.46h-5.73v22.82h-4.92v-49.06h11.35,0Zm-46.94,0l22.89,49.06h-5.26l-7.72-16.12h-21.18l-7.65,16.12h-5.47l23.24-49.06h1.16,0Zm-51.87,0v44.28h18.86v4.78h-23.78v-49.06h4.92,0Zm-46.12-1.23c14.9,0,26.24,11.14,26.24,25.76s-11.28,25.76-25.83,25.76-25.9-11.82-25.9-25.55c0-14.63,11.35-25.97,25.49-25.97Z"/></svg>