<?xml version="1.0" encoding="UTF-8"?><svg id="layer" xmlns="http://www.w3.org/2000/svg" viewBox="0 0 756.7 499.67"><path d="m720.5,456.47c0-5.3,4.6-10,16.2-10,6.1,0,11.3,1,16.6,2.8l1.1-4.4c-5-1.8-11.2-3-18-3-15.1,0-21.9,6.4-21.9,14.8,0,18.4,36.2,11.8,36.2,26.8,0,7.2-5.7,11.5-16.9,11.5-7.4,0-13.4-1.5-18.9-4.3l-1.1,4.6c5.3,2.6,11.9,4.3,20,4.3,15,0,22.9-6.2,22.9-16.4,0-19.2-36.2-12.5-36.2-26.7m-49.6-13.6h-6.2v55.8h40.8l.3-4.8h-34.9v-51h0Zm-64.4,36.6l12.5-27.3,2.5-5.7h.3l2.4,5.7,12.3,27.3h-30Zm11.4-36.6l-26.7,55.8h6.7l6.7-14.7h33.9l6.7,14.7h7l-26.7-55.8h-7.6Zm-45,41.1l.2,5.9-.2.1-4.1-5.1-35.2-42.1h-6.1v55.8h5.7v-42.1l-.1-6,.2-.1,4.1,5.1,36.4,43.1h4.6v-55.8h-5.5v41.2Zm-90.3,10.9c-15.6,0-21.8-5.4-21.8-24.2s6.2-24.1,21.7-24.1,21.7,5.3,21.7,24.1c0,18.8-6.1,24.2-21.6,24.2m-.1-52.9c-20.4,0-28.1,8.1-28.1,28.8s7.8,28.9,28.1,28.9,28.1-8.2,28.1-28.9-7.6-28.8-28.1-28.8m-52.6,56.7h6.2v-55.8h-6.2v55.8Zm-52.5-42.2c0-5.3,4.6-10,16.2-10,6.1,0,11.3,1,16.6,2.8l1.1-4.4c-5-1.8-11.2-3-18-3-15.1,0-21.9,6.4-21.9,14.8,0,18.4,36.1,11.8,36.1,26.8,0,7.2-5.7,11.5-16.9,11.5-7.4,0-13.4-1.5-18.9-4.3l-1.1,4.6c5.3,2.6,11.9,4.3,20,4.3,15,0,22.9-6.2,22.9-16.4.2-19.2-36.1-12.5-36.1-26.7m-51.6,0c0-5.3,4.6-10,16.2-10,6.1,0,11.3,1,16.6,2.8l1.1-4.4c-5-1.8-11.2-3-18-3-15.1,0-21.9,6.4-21.9,14.8,0,18.4,36.2,11.8,36.2,26.8,0,7.2-5.7,11.5-16.9,11.5-7.4,0-13.4-1.5-18.9-4.3l-1.1,4.6c5.4,2.6,11.9,4.3,20,4.3,15,0,22.9-6.2,22.9-16.4.1-19.2-36.2-12.5-36.2-26.7m-54.3,15h30.9v-4.2h-30.9v-19.8h35.7l-.3-4.6h-41.5v55.8h43.2l.3-4.6h-37.4v-22.6Zm-20.3-23.9l-.2-4.8h-41.5v55.8h6.2v-26.4h29.9v-4.5h-29.9v-20.1h35.5Zm-86.6,47.3c-15.6,0-21.8-5.4-21.8-24.2s6.2-24.1,21.7-24.1,21.7,5.3,21.7,24.1-6.1,24.2-21.6,24.2m0-52.9c-20.4,0-28.1,8.1-28.1,28.8s7.8,28.9,28.1,28.9,28.1-8.2,28.1-28.9c-.1-20.7-7.7-28.8-28.1-28.8m-62.7,27.6h-16v-22.3h16.6c9.9,0,14.3,3.1,14.3,10.9s-4.6,11.4-14.9,11.4m21.2-11.6c0-10.2-6.5-15.1-20.7-15.1h-22.7v55.8h6.2v-25h16.3l18,25h7.5l-19.6-26c9.8-.9,15-5.6,15-14.7m-81.6,13.9h-16.2v-24.6h16.2c11.3,0,16.6,3.3,16.6,12.2,0,9.4-5.6,12.4-16.6,12.4m0-29h-22.5v55.8h6.2v-22.6h16.2c16.2,0,22.9-5.4,22.9-16.7.1-11.6-6.9-16.5-22.8-16.5m463.5-52.4c0-23.5.2-97.7.2-97.7h-24.9l-.2,101.1s-1.4,25.7,24.7,25.7h71.5s4.6-8.8,10.6-21.9h-74.6c-4-.1-7.3-3.1-7.3-7.2m-36.9,29.1s1.2-21.9-10.6-21.9h-65.7c-4.1,0-7.4-3.1-7.4-7.2v-97.7h-24.9v101.1s-1.4,25.7,24.7,25.7h83.9Zm197.2-99.3c1.3-2.4,3.7-5.6,8-5.7,5.1.1,6.7,3.1,8,5.6,8.9,16.6,26.5,55.8,26.5,55.8h-68.8c-.1.1,17.5-39,26.3-55.7m-34.2,75h84.4l11.4,24.3h29.4l-54.3-114s-5.1-12.5-18.4-12.5h-20.5c-13.2,0-18.4,12.5-18.4,12.5l-54.4,113.9h29.5l11.3-24.2Zm-416.6-129.5c1.2,1.7,3.9,1,3.7-1.1-1.5-12.7-5.3-25.7-13.9-35.5-8.5-9.7-20.5-13.7-33.1-15.6-13.7-2.2-27.7-1.5-41.6-.7-6.2.3-13.3,1.8-19.5.6-7.3-1.4-7.2-8.4-5.1-14.1,1-2.7,3.6-5.7,3.7-8.6.1-1.4-.5-2.8-1.3-4l-1.6-1.9c-1.1-1-1.4-1-.9-2.6s1.3-3.1,2.3-4.3c1.1-1.2,3-1.4,3.3-3.3.4-2-1.2-2.8-2.7-3.5-1.9-.8-6.6-4.7-4.3-6.7,2.8-2.5,4.6-6,4.7-9.7.1-3.1-1.2-6-3.8-7.8-3-2.1-6.9-5-7.5-8.8-.3-1.9,5.9-5.1,7.4-6.1,3.5-2.4,7-4.7,10.4-7.2,6.5-4.7,13.7-10,17.7-17.2,3.9-6.9,3-15.8,4.7-23.4.8-3.6,2-7.2,3.6-10.5,3.8-6,8.3-11.3,14-15.5l1.4-1,.2-.2,2.1-1.3c2.1-1.3,4.5-2.5,6.5-4,2.8-2.1,4.4-5.2,6.6-7.9,11.3-14.1,29.1-18.5,46.8-18.1,26.7.6,49.4,17.3,70.3,32.1,23,16.3,45.6,33.5,70.2,47.4,12.4,7,25.3,13.2,39.3,16.3,15.5,3.5,31.5,3.6,47.1,1.5,13-1.7,25.7-4.9,38-9.2,10.9-3.8,21.3-8.6,31.9-13.1,14.3-6,28.9-11.8,44.2-15.1,13.4-2.8,28.5-3.8,41.3,1.8,5.5,2.4,12.4,7.9,16.1,12.6,1.3,1.6,4,4.7,4.6,1,.7-4-.1-8.4-1.7-12-4.8-10.7-12.4-17.6-25.8-23.2-10.7-4.5-22-6.1-33.4-5-22.7,2.2-44.1,10.9-65.1,19.1-15.4,6-30.7,13.2-47.1,15.8-24.6,4-51.4-.7-73.2-12.4-21.5-11.5-41.2-26.3-61-40.3-20.2-14.2-40.2-28.5-63.6-36.9-22.7-8.2-47.5-8.8-69.6,1.7-10.9,5.2-21.2,13.8-25.4,25.4-.7,1.8-1,3.9-2.1,5.5l-1.4,1.5c-1,.6-1.9,1.2-2.3,1.4l-1.5.9-.9.4c-1.8.9-3.5,2.1-5.2,3.4-3.3,2.3-6.4,4.7-9.2,7.7-8.3,8.8-12.3,20.4-15,31.9-.8,3.7-1.5,7.4-2.2,11.2-.7,4.3-2.1,7-5.2,10.1-5.8,5.7-12.9,10.2-19.7,14.7-3.1,2.1-6.3,4.1-9.5,6.2-1.8,1.2-4.5,2.4-5.6,4.2-3.4,5.3,1.4,12,5,15.6,2.1,2,5.5,3.8,5.8,6.9.3,2.5-1.4,4.9-3.1,6.6-.9.9-2.6,1.7-2.8,3-.2,1.5-.3,3.1.1,4.5.8,3.4,3.5,5.6,6.3,7.5-4.6,2-12.3,9.9-6.3,14.5,3.6,2.7,3.3,4.9,2.3,8.8s-1.8,7.9-1.9,12c-.1,6.7,2.1,13.2,8.5,16.4,6.7,3.3,15.3,2.7,22.6,2.4,28.6-1.3,61-8.9,85.1,11,3.4,2.8,6.4,6,9.1,9.5,1.7,2.3,3.2,4.6,4.6,7.1,1.2,2.2,2,5.3,3.6,7.6m305.8-78.1c-26.9,10.1-53.5,21.6-82.3,24.5-27.1,2.7-54.3-2.4-77.5-16.6-19.6-12-36.6-27.8-54.1-42.5-8.9-7.5-17.9-15.3-28.9-19.8-5.6-2.3-12-4.2-18.2-3.7-1.9.1-8.3,1.1-7,4.5,2,1.6,5,1.4,7.3,2.5s4.4,2.4,6.5,3.8c7.8,5.3,14.9,11.7,21.5,18.5,9.6,9.9,18.4,20.6,28.1,30.6,9.2,9.6,19.1,19,29.6,27.2,8.2,6.4,17.2,11.6,27,15.3,12.6,4.6,26.1,6.8,39.5,7.9,32.8,2.7,64.5-5.4,94.9-17,27.7-10.5,54.8-23,84.4-27.9,20.6-3.4,43.6-2.8,61.2,9.7,5.5,3.8,9.9,8.8,12.8,14.8l1.1,2c1.8,2.4,3.2-3.5,3.5-4.7,1.4-6.2.2-13.7-2.6-19.3-4.2-8.5-12.2-13.6-20-17.9-10.2-5.6-22.8-7.7-34.4-8.8-31.6-3.4-63.1,6-92.4,16.9m49.5-73c-24.9,3-47.2,14.7-70.4,23.5-14,5.4-28.4,9.8-43.2,12.8-15.3,3.1-31,4.8-46.6,2.5-12-1.8-23.3-6-34.1-11.3-9.8-4.7-19.6-9.6-28.7-15.4-19.6-12.4-37.7-27.2-55.5-41.9-17.9-14.8-39.3-29.9-63.9-27.2-5.7.6-11.3,2.2-16.3,5-1.8,1.1-9.4,5.3-8.2,8,.8,1.9,3.7,1.4,5.3,1.1,3.2-.5,6.3-1,9.5-1.3,5.8-.5,11.5.2,17.1,1.6,15.2,3,28.3,12.4,39.8,22.2,8.9,7.6,17.2,15.9,25.4,24.2,17.7,17.8,35.6,37.3,58.5,48.8,27.9,14,59.3,18.7,90.1,13.6,27.5-4.6,55-13.7,79.9-26.1,14.6-7.2,29.7-13.8,45.9-16.6,14.2-2.5,29.6-2.8,43,3,8.5,3.7,15.6,9.4,22.2,15.8.9.9,2.3,2.6,3.7,2.4,1.7-.3,1.4-3.8,1.4-4.9.1-4.6-.7-9.1-2.5-13.3-4.5-10.1-14.2-16.5-24.2-20.5-15.3-6.2-32-7.9-48.2-6M243.7,419.17h100s.9-21.5-10.9-22.1c-21.4,0-68.4.1-84.6.1-8.5,0-7.6-7.8-7.6-7.8v-23.8h72.6v-22.1h-72.6v-21.4s0-6.8,7.6-6.8h84.4c9.1,0,10.4-22.1,10.4-22.1h-99.8c-29.3,0-28.3,25.4-28.3,25.4v74.5c-.1.1.3,26.1,28.8,26.1m-97.8-37c-2.2-5.9-18.8-52.7-27.6-77,.2.4-2.4-9.9-9.2-10-2.1-.4-15-.3-15-.3,0,0-7.3-1.1-11.5,10.5-8.9,24.3-25.7,70.7-27.9,76.7-2.8-8.7-28.4-88.9-28.4-88.9H0l40.9,126h24.5s31.6-82.7,34.6-90.6c2.9,8,33.3,90.6,33.3,90.6h25.7l42.2-126h-25.9s-26.6,80.3-29.4,89"/><path d="m756.7,312.27v-19.3h-3.2l-4.3,10.5-2.1,5.4h-.2l-2.1-5.4-4.3-10.5h-3.4v19.3h2.3v-16.2l.1-.1,2.1,5.5,4.5,10.7h1.9l4.4-10.8,2.1-5.5.2.1-.2,5.9v10.3h2.2v.1Zm-22.6-16.8v-2.5h-14.4v2.5h5.9v16.8h2.6v-16.8h5.9Z"/></svg>