<?xml version="1.0" encoding="UTF-8"?><svg id="Layer_3" xmlns="http://www.w3.org/2000/svg" viewBox="0 0 348.4 172.7"><defs><style>.cls-1{fill:#fff;}</style></defs><path class="cls-1" d="m292.46,157.77c0-1.83,1.59-3.46,5.6-3.46,2.11,0,3.91.35,5.74.97l.38-1.52c-1.73-.62-3.87-1.04-6.22-1.04-5.22,0-7.57,2.21-7.57,5.12,0,6.36,12.51,4.08,12.51,9.26,0,2.49-1.97,3.97-5.84,3.97-2.56,0-4.63-.52-6.53-1.49l-.38,1.59c1.83.9,4.11,1.49,6.91,1.49,5.18,0,7.91-2.14,7.91-5.67,0-6.64-12.51-4.32-12.51-9.23m-17.14-4.7h-2.14v19.29h14.1l.1-1.66h-12.06v-17.63h0Zm-22.26,12.65l4.32-9.44.86-1.97h.1l.83,1.97,4.25,9.44h-10.37Zm3.94-12.65l-9.23,19.29h2.32l2.32-5.08h11.72l2.32,5.08h2.42l-9.23-19.29h-2.63Zm-15.55,14.21l.07,2.04-.07.03-1.42-1.76-12.17-14.55h-2.11v19.29h1.97v-14.55l-.03-2.07.07-.03,1.42,1.76,12.58,14.9h1.59v-19.29h-1.9v14.24h0Zm-31.21,3.77c-5.39,0-7.53-1.87-7.53-8.36s2.14-8.33,7.5-8.33,7.5,1.83,7.5,8.33-2.11,8.36-7.47,8.36m-.03-18.28c-7.05,0-9.71,2.8-9.71,9.95s2.7,9.99,9.71,9.99,9.71-2.83,9.71-9.99-2.63-9.95-9.71-9.95m-18.18,19.6h2.14v-19.29h-2.14v19.29Zm-18.15-14.59c0-1.83,1.59-3.46,5.6-3.46,2.11,0,3.91.35,5.74.97l.38-1.52c-1.73-.62-3.87-1.04-6.22-1.04-5.22,0-7.57,2.21-7.57,5.12,0,6.36,12.48,4.08,12.48,9.26,0,2.49-1.97,3.97-5.84,3.97-2.56,0-4.63-.52-6.53-1.49l-.38,1.59c1.83.9,4.11,1.49,6.91,1.49,5.18,0,7.91-2.14,7.91-5.67.07-6.64-12.48-4.32-12.48-9.23m-17.83,0c0-1.83,1.59-3.46,5.6-3.46,2.11,0,3.91.35,5.74.97l.38-1.52c-1.73-.62-3.87-1.04-6.22-1.04-5.22,0-7.57,2.21-7.57,5.12,0,6.36,12.51,4.08,12.51,9.26,0,2.49-1.97,3.97-5.84,3.97-2.56,0-4.63-.52-6.53-1.49l-.38,1.59c1.87.9,4.11,1.49,6.91,1.49,5.18,0,7.91-2.14,7.91-5.67.03-6.64-12.51-4.32-12.51-9.23m-18.77,5.18h10.68v-1.45h-10.68v-6.84h12.34l-.1-1.59h-14.34v19.29h14.93l.1-1.59h-12.93v-7.81h0Zm-7.02-8.26l-.07-1.66h-14.34v19.29h2.14v-9.12h10.33v-1.56h-10.33v-6.95h12.27Zm-29.93,16.35c-5.39,0-7.53-1.87-7.53-8.36s2.14-8.33,7.5-8.33,7.5,1.83,7.5,8.33-2.11,8.36-7.47,8.36m0-18.28c-7.05,0-9.71,2.8-9.71,9.95s2.7,9.99,9.71,9.99,9.71-2.83,9.71-9.99c-.03-7.15-2.66-9.95-9.71-9.95m-21.67,9.54h-5.53v-7.71h5.74c3.42,0,4.94,1.07,4.94,3.77s-1.59,3.94-5.15,3.94m7.33-4.01c0-3.53-2.25-5.22-7.15-5.22h-7.85v19.29h2.14v-8.64h5.63l6.22,8.64h2.59l-6.77-8.99c3.39-.31,5.18-1.94,5.18-5.08m-28.2,4.8h-5.6v-8.5h5.6c3.91,0,5.74,1.14,5.74,4.22,0,3.25-1.94,4.29-5.74,4.29m0-10.02h-7.78v19.29h2.14v-7.81h5.6c5.6,0,7.91-1.87,7.91-5.77.03-4.01-2.38-5.7-7.88-5.7m160.2-18.11c0-8.12.07-33.77.07-33.77h-8.61l-.07,34.94s-.48,8.88,8.54,8.88h24.71s1.59-3.04,3.66-7.57h-25.78c-1.38-.03-2.52-1.07-2.52-2.49m-12.75,10.06s.41-7.57-3.66-7.57h-22.71c-1.42,0-2.56-1.07-2.56-2.49v-33.77h-8.61v34.94s-.48,8.88,8.54,8.88h29Zm68.16-34.32c.45-.83,1.28-1.94,2.76-1.97,1.76.03,2.32,1.07,2.76,1.94,3.08,5.74,9.16,19.29,9.16,19.29h-23.78s6.05-13.48,9.09-19.25m-11.82,25.92h29.17l3.94,8.4h10.16l-18.77-39.4s-1.76-4.32-6.36-4.32h-7.09c-4.56,0-6.36,4.32-6.36,4.32l-18.8,39.37h10.2l3.91-8.36h0Zm-143.99-44.76c.41.59,1.35.35,1.28-.38-.52-4.39-1.83-8.88-4.8-12.27-2.94-3.35-7.09-4.74-11.44-5.39-4.74-.76-9.57-.52-14.38-.24-2.14.1-4.6.62-6.74.21-2.52-.48-2.49-2.9-1.76-4.87.35-.93,1.24-1.97,1.28-2.97.03-.48-.17-.97-.45-1.38l-.55-.66c-.38-.35-.48-.35-.31-.9s.45-1.07.79-1.49c.38-.41,1.04-.48,1.14-1.14.14-.69-.41-.97-.93-1.21-.66-.28-2.28-1.62-1.49-2.32.97-.86,1.59-2.07,1.62-3.35.03-1.07-.41-2.07-1.31-2.7-1.04-.73-2.38-1.73-2.59-3.04-.1-.66,2.04-1.76,2.56-2.11,1.21-.83,2.42-1.62,3.59-2.49,2.25-1.62,4.74-3.46,6.12-5.94,1.35-2.38,1.04-5.46,1.62-8.09.28-1.24.69-2.49,1.24-3.63,1.31-2.07,2.87-3.91,4.84-5.36l.48-.35.07-.07.73-.45c.73-.45,1.56-.86,2.25-1.38.97-.73,1.52-1.8,2.28-2.73,3.91-4.87,10.06-6.39,16.18-6.26,9.23.21,17.07,5.98,24.3,11.09,7.95,5.63,15.76,11.58,24.26,16.38,4.29,2.42,8.74,4.56,13.58,5.63,5.36,1.21,10.89,1.24,16.28.52,4.49-.59,8.88-1.69,13.13-3.18,3.77-1.31,7.36-2.97,11.03-4.53,4.94-2.07,9.99-4.08,15.28-5.22,4.63-.97,9.85-1.31,14.27.62,1.9.83,4.29,2.73,5.56,4.35.45.55,1.38,1.62,1.59.35.24-1.38-.03-2.9-.59-4.15-1.66-3.7-4.29-6.08-8.92-8.02-3.7-1.56-7.6-2.11-11.54-1.73-7.85.76-15.24,3.77-22.5,6.6-5.32,2.07-10.61,4.56-16.28,5.46-8.5,1.38-17.76-.24-25.3-4.29-7.43-3.97-14.24-9.09-21.08-13.93-6.98-4.91-13.89-9.85-21.98-12.75-7.85-2.83-16.42-3.04-24.06.59-3.77,1.8-7.33,4.77-8.78,8.78-.24.62-.35,1.35-.73,1.9l-.48.52c-.35.21-.66.41-.79.48l-.52.31-.31.14c-.62.31-1.21.73-1.8,1.18-1.14.79-2.21,1.62-3.18,2.66-2.87,3.04-4.25,7.05-5.18,11.03-.28,1.28-.52,2.56-.76,3.87-.24,1.49-.73,2.42-1.8,3.49-2,1.97-4.46,3.53-6.81,5.08-1.07.73-2.18,1.42-3.28,2.14-.62.41-1.56.83-1.94,1.45-1.18,1.83.48,4.15,1.73,5.39.73.69,1.9,1.31,2,2.38.1.86-.48,1.69-1.07,2.28-.31.31-.9.59-.97,1.04-.07.52-.1,1.07.03,1.56.28,1.18,1.21,1.94,2.18,2.59-1.59.69-4.25,3.42-2.18,5.01,1.24.93,1.14,1.69.79,3.04s-.62,2.73-.66,4.15c-.03,2.32.73,4.56,2.94,5.67,2.32,1.14,5.29.93,7.81.83,9.88-.45,21.08-3.08,29.41,3.8,1.18.97,2.21,2.07,3.15,3.28.59.79,1.11,1.59,1.59,2.45.41.76.69,1.83,1.24,2.63m105.69-26.99c-9.3,3.49-18.49,7.47-28.44,8.47-9.37.93-18.77-.83-26.79-5.74-6.77-4.15-12.65-9.61-18.7-14.69-3.08-2.59-6.19-5.29-9.99-6.84-1.94-.79-4.15-1.45-6.29-1.28-.66.03-2.87.38-2.42,1.56.69.55,1.73.48,2.52.86s1.52.83,2.25,1.31c2.7,1.83,5.15,4.04,7.43,6.39,3.32,3.42,6.36,7.12,9.71,10.58,3.18,3.32,6.6,6.57,10.23,9.4,2.83,2.21,5.94,4.01,9.33,5.29,4.35,1.59,9.02,2.35,13.65,2.73,11.34.93,22.29-1.87,32.8-5.88,9.57-3.63,18.94-7.95,29.17-9.64,7.12-1.18,15.07-.97,21.15,3.35,1.9,1.31,3.42,3.04,4.42,5.12l.38.69c.62.83,1.11-1.21,1.21-1.62.48-2.14.07-4.74-.9-6.67-1.45-2.94-4.22-4.7-6.91-6.19-3.53-1.94-7.88-2.66-11.89-3.04-10.92-1.18-21.81,2.07-31.94,5.84m17.11-25.23c-8.61,1.04-16.31,5.08-24.33,8.12-4.84,1.87-9.82,3.39-14.93,4.42-5.29,1.07-10.71,1.66-16.11.86-4.15-.62-8.05-2.07-11.79-3.91-3.39-1.62-6.77-3.32-9.92-5.32-6.77-4.29-13.03-9.4-19.18-14.48-6.19-5.12-13.58-10.33-22.09-9.4-1.97.21-3.91.76-5.63,1.73-.62.38-3.25,1.83-2.83,2.76.28.66,1.28.48,1.83.38,1.11-.17,2.18-.35,3.28-.45,2-.17,3.97.07,5.91.55,5.25,1.04,9.78,4.29,13.76,7.67,3.08,2.63,5.94,5.5,8.78,8.36,6.12,6.15,12.3,12.89,20.22,16.87,9.64,4.84,20.5,6.46,31.14,4.7,9.5-1.59,19.01-4.74,27.62-9.02,5.05-2.49,10.26-4.77,15.86-5.74,4.91-.86,10.23-.97,14.86,1.04,2.94,1.28,5.39,3.25,7.67,5.46.31.31.79.9,1.28.83.59-.1.48-1.31.48-1.69.03-1.59-.24-3.15-.86-4.6-1.56-3.49-4.91-5.7-8.36-7.09-5.29-2.14-11.06-2.73-16.66-2.07m-112.71,105.24h34.56s.31-7.43-3.77-7.64c-7.4,0-23.64.03-29.24.03-2.94,0-2.63-2.7-2.63-2.7v-8.23h25.09v-7.64h-25.09v-7.4s0-2.35,2.63-2.35h29.17c3.15,0,3.59-7.64,3.59-7.64h-34.49c-10.13,0-9.78,8.78-9.78,8.78v25.75s.1,9.02,9.95,9.02m-33.8-12.79c-.76-2.04-6.5-18.21-9.54-26.61.07.14-.83-3.42-3.18-3.46-.73-.14-5.18-.1-5.18-.1,0,0-2.52-.38-3.97,3.63-3.08,8.4-8.88,24.44-9.64,26.51-.97-3.01-9.82-30.73-9.82-30.73h-9.09l14.14,43.55h8.47s10.92-28.58,11.96-31.31c1,2.76,11.51,31.31,11.51,31.31h8.88l14.59-43.55h-8.95s-9.19,27.75-10.16,30.76"/></svg>